<svg width="276" height="276" viewBox="0 0 276 276" fill="none" xmlns="http://www.w3.org/2000/svg">
<rect x="0.5" y="212.5" width="63" height="63" rx="7.5" stroke="#93C5FD"/>
<rect x="32" y="32" width="212" height="212" rx="8" fill="#F0F9FF"/>
<path fill-rule="evenodd" clip-rule="evenodd" d="M147.062 115.779C142.518 113.926 137.515 113.51 132.728 114.588C127.94 115.666 123.599 118.185 120.287 121.807C116.976 125.428 114.854 129.978 114.208 134.842C113.562 139.707 114.423 144.652 116.674 149.013C118.925 153.373 122.459 156.938 126.799 159.228C131.139 161.518 136.077 162.423 140.947 161.82C142.409 161.639 143.74 162.678 143.921 164.139C144.102 165.601 143.064 166.932 141.602 167.113C135.65 167.85 129.615 166.744 124.31 163.945C119.006 161.146 114.687 156.789 111.935 151.459C109.183 146.13 108.132 140.086 108.921 134.14C109.711 128.195 112.304 122.634 116.351 118.208C120.398 113.781 125.705 110.702 131.556 109.385C137.408 108.068 143.522 108.576 149.076 110.84C154.629 113.105 159.355 117.018 162.617 122.051C165.878 127.085 167.518 132.997 167.316 138.991C167.266 140.463 166.033 141.616 164.561 141.566C163.089 141.517 161.936 140.283 161.985 138.811C162.151 133.907 160.809 129.07 158.141 124.951C155.472 120.833 151.606 117.632 147.062 115.779Z" fill="#2563EB"/>
<path fill-rule="evenodd" clip-rule="evenodd" d="M138 119.333C139.473 119.333 140.667 120.527 140.667 122V136.352L143.358 137.698C144.675 138.356 145.209 139.958 144.55 141.275C143.892 142.593 142.29 143.126 140.973 142.468L136.807 140.385C135.904 139.933 135.333 139.01 135.333 138V122C135.333 120.527 136.527 119.333 138 119.333Z" fill="#2563EB"/>
<path fill-rule="evenodd" clip-rule="evenodd" d="M152.114 141.448C153.156 140.406 154.844 140.406 155.886 141.448L166.552 152.114C167.594 153.156 167.594 154.844 166.552 155.886C165.511 156.927 163.823 156.927 162.781 155.886L154 147.105L145.219 155.886C144.178 156.927 142.489 156.927 141.448 155.886C140.406 154.844 140.406 153.156 141.448 152.114L152.114 141.448Z" fill="#2563EB"/>
<path fill-rule="evenodd" clip-rule="evenodd" d="M154 140.667C155.473 140.667 156.667 141.861 156.667 143.333V164.667C156.667 166.14 155.473 167.333 154 167.333C152.527 167.333 151.333 166.14 151.333 164.667V143.333C151.333 141.861 152.527 140.667 154 140.667Z" fill="#2563EB"/>
<path d="M24 72V34C24 28.4772 28.4772 24 34 24H72" stroke="#93C5FD" stroke-width="4"/>
<path d="M252 204V240C252 246.627 246.627 252 240 252H204" stroke="#3B82F6" stroke-width="4"/>
</svg>
