<svg width="64" height="64" viewBox="0 0 64 64" fill="none" xmlns="http://www.w3.org/2000/svg">
<g id="bussiness-deal">
<path id="Vector (Stroke)" fill-rule="evenodd" clip-rule="evenodd" d="M40.7811 40.781C41.8225 39.7397 43.511 39.7397 44.5524 40.781C45.3253 41.554 45.9384 42.4715 46.3567 43.4814C46.775 44.4912 46.9903 45.5736 46.9903 46.6667C46.9903 47.7597 46.775 48.8421 46.3567 49.8519C45.9384 50.8618 45.3253 51.7794 44.5524 52.5523C43.7795 53.3252 42.8619 53.9383 41.852 54.3566C40.8422 54.7749 39.7598 54.9902 38.6667 54.9902C37.5737 54.9902 36.4913 54.7749 35.4815 54.3566C34.4716 53.9383 33.554 53.3252 32.7811 52.5523L27.4478 47.219C26.4064 46.1776 26.4064 44.4891 27.4478 43.4477C28.4892 42.4063 30.1776 42.4063 31.219 43.4477L36.5524 48.781C36.83 49.0587 37.1597 49.279 37.5225 49.4292C37.8852 49.5795 38.2741 49.6569 38.6667 49.6569C39.0594 49.6569 39.4483 49.5795 39.811 49.4292C40.1738 49.279 40.5035 49.0587 40.7811 48.781C41.0588 48.5034 41.2791 48.1737 41.4293 47.811C41.5796 47.4482 41.6569 47.0593 41.6569 46.6667C41.6569 46.274 41.5796 45.8852 41.4293 45.5224C41.2791 45.1596 41.0588 44.83 40.7811 44.5523C39.7397 43.5109 39.7397 41.8224 40.7811 40.781Z" fill="#2563EB"/>
<path id="Vector (Stroke)_2" fill-rule="evenodd" clip-rule="evenodd" d="M44.9516 12.4755C42.512 11.0169 39.6556 10.4136 36.8346 10.7613C34.014 11.1089 31.3898 12.3872 29.3775 14.3939C29.3771 14.3942 29.3778 14.3936 29.3775 14.3939L21.8857 21.8857C21.3249 22.4464 21.0098 23.207 21.0098 24C21.0098 24.7931 21.3249 25.5537 21.8857 26.1144C22.4464 26.6752 23.207 26.9902 24 26.9902C24.7931 26.9902 25.5536 26.6752 26.1144 26.1144L28.4611 23.7678C30.4611 21.7702 33.1734 20.6471 36 20.6471C38.8267 20.6471 41.5378 21.7691 43.5378 23.7666L53.8857 34.1144C55.4466 35.6754 56.3236 37.7925 56.3236 40C56.3236 42.2076 55.4466 44.3247 53.8857 45.8857C52.3247 47.4466 50.2076 48.3236 48 48.3236C45.7925 48.3236 43.6754 47.4466 42.1144 45.8857L35.4478 39.219C34.4064 38.1776 34.4064 36.4892 35.4478 35.4478C36.4891 34.4064 38.1776 34.4064 39.219 35.4478L45.8857 42.1144C46.4464 42.6752 47.207 42.9902 48 42.9902C48.7931 42.9902 49.5536 42.6752 50.1144 42.1144C50.6752 41.5537 50.9902 40.7931 50.9902 40C50.9902 39.207 50.6752 38.4464 50.1144 37.8857L39.7689 27.5402C38.7689 26.5414 37.4134 25.9804 36 25.9804C34.5867 25.9804 33.2311 26.5414 32.2311 27.5402L29.8857 29.8857C28.3247 31.4466 26.2076 32.3236 24 32.3236C21.7925 32.3236 19.6754 31.4466 18.1144 29.8857C16.5535 28.3247 15.6765 26.2076 15.6765 24C15.6765 21.7925 16.5535 19.6754 18.1144 18.1144L25.6102 10.6186C28.463 7.7733 32.1833 5.96078 36.1823 5.46799C40.1806 4.97528 44.229 5.83005 47.6869 7.89699C47.6864 7.89667 47.6874 7.8973 47.6869 7.89699L48.9513 8.65028C49.5178 8.99217 50.1911 9.11128 50.8403 8.9845C50.8418 8.98422 50.8432 8.98394 50.8447 8.98365L55.4742 8.05241C56.918 7.76198 58.3239 8.69701 58.6143 10.1408C58.9048 11.5847 57.9697 12.9906 56.5259 13.281L51.8859 14.2143L51.8754 14.2164C49.9264 14.6004 47.9043 14.2454 46.2027 13.2208L44.9516 12.4755Z" fill="#2563EB"/>
<path id="Vector (Stroke)_3" fill-rule="evenodd" clip-rule="evenodd" d="M55.7587 5.34425C57.2254 5.21091 58.5225 6.29183 58.6558 7.75854L61.3225 37.0919C61.3903 37.838 61.1411 38.5783 60.6359 39.1315C60.1306 39.6848 59.416 40 58.6667 40H53.3334C51.8607 40 50.6667 38.8061 50.6667 37.3333C50.6667 35.8605 51.8607 34.6666 53.3334 34.6666H55.7467L53.3444 8.2414C53.211 6.77469 54.2919 5.47759 55.7587 5.34425Z" fill="#2563EB"/>
<path id="Vector (Stroke)_4" fill-rule="evenodd" clip-rule="evenodd" d="M8.24152 5.34425C9.70823 5.47759 10.7891 6.77469 10.6558 8.2414L8.10222 36.3309L24.5524 52.781C25.1132 53.3418 25.8737 53.6568 26.6668 53.6568C27.4598 53.6568 28.2204 53.3418 28.7811 52.781C29.3419 52.2203 29.657 51.4597 29.657 50.6666C29.657 49.8736 29.3419 49.113 28.7811 48.5523C27.7397 47.5109 27.7397 45.8224 28.7811 44.781C29.8225 43.7396 31.511 43.7396 32.5524 44.781C34.1133 46.342 34.9903 48.4591 34.9903 50.6666C34.9903 52.8742 34.1133 54.9913 32.5524 56.5523C30.9914 58.1132 28.8743 58.9902 26.6668 58.9902C24.4592 58.9902 22.3421 58.1132 20.7811 56.5523L3.44781 39.2189C2.8882 38.6593 2.60606 37.88 2.67771 37.0919L5.34438 7.75854C5.47772 6.29183 6.77481 5.21091 8.24152 5.34425Z" fill="#2563EB"/>
<path id="Vector (Stroke)_5" fill-rule="evenodd" clip-rule="evenodd" d="M5.33325 10.6667C5.33325 9.19391 6.52716 8 7.99992 8H29.3333C30.806 8 31.9999 9.19391 31.9999 10.6667C31.9999 12.1394 30.806 13.3333 29.3333 13.3333H7.99992C6.52716 13.3333 5.33325 12.1394 5.33325 10.6667Z" fill="#2563EB"/>
</g>
</svg>
