<svg width="417" height="324" viewBox="0 0 417 324" fill="none" xmlns="http://www.w3.org/2000/svg">
<rect width="200" height="154" fill="#3B82F6"/>
<path fill-rule="evenodd" clip-rule="evenodd" d="M76 113C76 108.582 79.5817 105 84 105C88.4183 105 92 108.582 92 113C92 117.418 88.4183 121 84 121C79.5817 121 76 117.418 76 113Z" fill="white"/>
<path fill-rule="evenodd" clip-rule="evenodd" d="M120 113C120 108.582 123.582 105 128 105C132.418 105 136 108.582 136 113C136 117.418 132.418 121 128 121C123.582 121 120 117.418 120 113Z" fill="white"/>
<path fill-rule="evenodd" clip-rule="evenodd" d="M56.2002 37.2002C56.2002 34.9911 57.9911 33.2002 60.2002 33.2002H68.2002C70.0865 33.2002 71.7165 34.518 72.1115 36.3625L75.7176 53.2002H140.36C141.573 53.2002 142.721 53.7508 143.48 54.6971C144.239 55.6433 144.528 56.883 144.265 58.0674L137.667 87.7802C137.666 87.7813 137.667 87.7791 137.667 87.7802C137.079 90.4461 135.599 92.8352 133.473 94.5472C131.346 96.2599 128.698 97.1958 125.967 97.2002L86.8803 97.2002C84.1068 97.2506 81.4009 96.3386 79.2234 94.6184C77.0332 92.8881 75.5146 90.4484 74.9292 87.7192L68.6111 58.2189C68.5805 58.1023 68.555 57.9836 68.5349 57.863L64.9662 41.2002H60.2002C57.9911 41.2002 56.2002 39.4093 56.2002 37.2002ZM77.431 61.2002L82.7512 86.0412C82.7511 86.0407 82.7513 86.0416 82.7512 86.0412C82.9466 86.9504 83.4529 87.7644 84.1826 88.3409C84.9127 88.9177 85.821 89.2219 86.7512 89.2012L86.8402 89.2002L125.954 89.2002C125.953 89.2002 125.954 89.2002 125.954 89.2002C126.863 89.1983 127.747 88.8863 128.456 88.3159C129.165 87.745 129.658 86.9493 129.854 86.0602L135.374 61.2002H77.431Z" fill="white"/>
<rect width="200" height="154" transform="translate(0 170)" fill="#93C5FD"/>
<path fill-rule="evenodd" clip-rule="evenodd" d="M80 211C80 206.582 83.5817 203 88 203H112C116.418 203 120 206.582 120 211V219C120 223.418 116.418 227 112 227H88C83.5817 227 80 223.418 80 219V211ZM112 211H88V219H112V211Z" fill="#2563EB"/>
<path fill-rule="evenodd" clip-rule="evenodd" d="M76 219C74.9391 219 73.9217 219.421 73.1716 220.172C72.4214 220.922 72 221.939 72 223V279C72 280.061 72.4214 281.078 73.1716 281.828C73.9217 282.579 74.9391 283 76 283H124C125.061 283 126.078 282.579 126.828 281.828C127.579 281.078 128 280.061 128 279V223C128 221.939 127.579 220.922 126.828 220.172C126.078 219.421 125.061 219 124 219H116C113.791 219 112 217.209 112 215C112 212.791 113.791 211 116 211H124C127.183 211 130.235 212.264 132.485 214.515C134.736 216.765 136 219.817 136 223V279C136 282.183 134.736 285.235 132.485 287.485C130.235 289.736 127.183 291 124 291H76C72.8174 291 69.7652 289.736 67.5147 287.485C65.2643 285.235 64 282.183 64 279V223C64 219.817 65.2643 216.765 67.5147 214.515C69.7652 212.264 72.8174 211 76 211H84C86.2091 211 88 212.791 88 215C88 217.209 86.2091 219 84 219H76Z" fill="#2563EB"/>
<path fill-rule="evenodd" clip-rule="evenodd" d="M96 243C96 240.791 97.7909 239 100 239H116C118.209 239 120 240.791 120 243C120 245.209 118.209 247 116 247H100C97.7909 247 96 245.209 96 243Z" fill="#2563EB"/>
<path fill-rule="evenodd" clip-rule="evenodd" d="M96 263C96 260.791 97.7909 259 100 259H116C118.209 259 120 260.791 120 263C120 265.209 118.209 267 116 267H100C97.7909 267 96 265.209 96 263Z" fill="#2563EB"/>
<path fill-rule="evenodd" clip-rule="evenodd" d="M80 243C80 240.791 81.7909 239 84 239H84.04C86.2491 239 88.04 240.791 88.04 243C88.04 245.209 86.2491 247 84.04 247H84C81.7909 247 80 245.209 80 243Z" fill="#2563EB"/>
<path fill-rule="evenodd" clip-rule="evenodd" d="M80 263C80 260.791 81.7909 259 84 259H84.04C86.2491 259 88.04 260.791 88.04 263C88.04 265.209 86.2491 267 84.04 267H84C81.7909 267 80 265.209 80 263Z" fill="#2563EB"/>
<rect width="201" height="324" transform="translate(216)" fill="#DBEAFE"/>
<path fill-rule="evenodd" clip-rule="evenodd" d="M316.5 126C296.618 126 280.5 142.118 280.5 162C280.5 181.882 296.618 198 316.5 198C336.382 198 352.5 181.882 352.5 162C352.5 142.118 336.382 126 316.5 126ZM272.5 162C272.5 137.699 292.199 118 316.5 118C340.801 118 360.5 137.699 360.5 162C360.5 186.301 340.801 206 316.5 206C292.199 206 272.5 186.301 272.5 162Z" fill="#2563EB"/>
<path fill-rule="evenodd" clip-rule="evenodd" d="M300.015 145.515C302.265 143.264 305.317 142 308.5 142H332.5C334.709 142 336.5 143.791 336.5 146C336.5 148.209 334.709 150 332.5 150H308.5C307.439 150 306.422 150.421 305.672 151.172C304.921 151.922 304.5 152.939 304.5 154C304.5 155.061 304.921 156.078 305.672 156.828C306.422 157.579 307.439 158 308.5 158H324.5C327.683 158 330.735 159.264 332.985 161.515C335.236 163.765 336.5 166.817 336.5 170C336.5 173.183 335.236 176.235 332.985 178.485C330.735 180.736 327.683 182 324.5 182H300.5C298.291 182 296.5 180.209 296.5 178C296.5 175.791 298.291 174 300.5 174H324.5C325.561 174 326.578 173.579 327.328 172.828C328.079 172.078 328.5 171.061 328.5 170C328.5 168.939 328.079 167.922 327.328 167.172C326.578 166.421 325.561 166 324.5 166H308.5C305.317 166 302.265 164.736 300.015 162.485C297.764 160.235 296.5 157.183 296.5 154C296.5 150.817 297.764 147.765 300.015 145.515Z" fill="#2563EB"/>
<path fill-rule="evenodd" clip-rule="evenodd" d="M316.5 134C318.709 134 320.5 135.791 320.5 138V186C320.5 188.209 318.709 190 316.5 190C314.291 190 312.5 188.209 312.5 186V138C312.5 135.791 314.291 134 316.5 134Z" fill="#2563EB"/>
</svg>
