<svg width="96" height="96" viewBox="0 0 96 96" fill="none" xmlns="http://www.w3.org/2000/svg">
<path fill-rule="evenodd" clip-rule="evenodd" d="M24 84C24 79.5817 27.5817 76 32 76C36.4183 76 40 79.5817 40 84C40 88.4183 36.4183 92 32 92C27.5817 92 24 88.4183 24 84Z" fill="white"/>
<path fill-rule="evenodd" clip-rule="evenodd" d="M68 84C68 79.5817 71.5817 76 76 76C80.4183 76 84 79.5817 84 84C84 88.4183 80.4183 92 76 92C71.5817 92 68 88.4183 68 84Z" fill="white"/>
<path fill-rule="evenodd" clip-rule="evenodd" d="M4.2002 8.2002C4.2002 5.99106 5.99106 4.2002 8.2002 4.2002H16.2002C18.0865 4.2002 19.7165 5.51802 20.1115 7.36251L23.7176 24.2002H88.3602C89.5734 24.2002 90.721 24.7508 91.4802 25.6971C92.2394 26.6433 92.5281 27.883 92.2651 29.0674L85.6667 58.7802C85.6664 58.7813 85.6669 58.7791 85.6667 58.7802C85.079 61.4461 83.5992 63.8352 81.4728 65.5472C79.3456 67.2599 76.6977 68.1958 73.9667 68.2002L34.8803 68.2002C32.1068 68.2506 29.4009 67.3386 27.2234 65.6184C25.0332 63.8881 23.5146 61.4484 22.9292 58.7192L16.6111 29.2189C16.5805 29.1023 16.555 28.9836 16.5349 28.863L12.9662 12.2002H8.2002C5.99106 12.2002 4.2002 10.4093 4.2002 8.2002ZM25.431 32.2002L30.7512 57.0412C30.7511 57.0407 30.7513 57.0416 30.7512 57.0412C30.9466 57.9504 31.4529 58.7644 32.1826 59.3409C32.9127 59.9177 33.821 60.2219 34.7512 60.2012L34.8402 60.2002L73.9537 60.2002C73.9531 60.2002 73.9544 60.2002 73.9537 60.2002C74.8634 60.1983 75.7472 59.8863 76.4558 59.3159C77.1649 58.745 77.658 57.9493 77.8537 57.0602L83.3745 32.2002H25.431Z" fill="white"/>
</svg>
