<svg width="120" height="120" viewBox="0 0 120 120" fill="none" xmlns="http://www.w3.org/2000/svg">
<g id="chart-up">
<path id="Vector (Stroke)" fill-rule="evenodd" clip-rule="evenodd" d="M113.535 18.5356C115.488 16.5829 115.488 13.4171 113.535 11.4645C111.583 9.51184 108.417 9.51184 106.465 11.4645L65 52.9289L50.305 38.2339C48.8985 36.8279 46.9912 36.0381 45.0025 36.0381C43.0137 36.0381 41.1062 36.8282 39.6997 38.2342L6.46473 71.464C4.51196 73.4165 4.51173 76.5825 6.4642 78.5355C8.41668 80.488 11.5825 80.4885 13.5352 78.536L45.0023 47.0734L59.6925 61.7635C60.3885 62.4605 61.2155 63.014 62.1255 63.3915C63.0365 63.77 64.0135 63.9645 65 63.9645C65.9865 63.9645 66.9635 63.77 67.8745 63.3915C68.7845 63.014 69.614 62.4585 70.31 61.761L113.535 18.5356ZM100 45C102.761 45 105 47.2386 105 50V105C105 107.761 102.761 110 100 110C97.2385 110 95 107.761 95 105V50C95 47.2386 97.2385 45 100 45ZM85 70C85 67.2385 82.7615 65 80 65C77.2385 65 75 67.2385 75 70V105C75 107.761 77.2385 110 80 110C82.7615 110 85 107.761 85 105V70ZM65 80C65 77.2385 62.7615 75 60 75C57.2385 75 55 77.2385 55 80V105C55 107.761 57.2385 110 60 110C62.7615 110 65 107.761 65 105V80ZM20 85C22.7614 85 25 87.2385 25 90V105C25 107.761 22.7614 110 20 110C17.2386 110 15 107.761 15 105V90C15 87.2385 17.2386 85 20 85ZM45 70C45 67.2385 42.7614 65 40 65C37.2386 65 35 67.2385 35 70V105C35 107.761 37.2386 110 40 110C42.7614 110 45 107.761 45 105V70Z" fill="white"/>
</g>
</svg>
