<svg width="97" height="96" viewBox="0 0 97 96" fill="none" xmlns="http://www.w3.org/2000/svg">
<path fill-rule="evenodd" clip-rule="evenodd" d="M48.5 12C28.6177 12 12.5 28.1177 12.5 48C12.5 67.8823 28.6177 84 48.5 84C68.3823 84 84.5 67.8823 84.5 48C84.5 28.1177 68.3823 12 48.5 12ZM4.5 48C4.5 23.6995 24.1995 4 48.5 4C72.8005 4 92.5 23.6995 92.5 48C92.5 72.3005 72.8005 92 48.5 92C24.1995 92 4.5 72.3005 4.5 48Z" fill="#2563EB"/>
<path fill-rule="evenodd" clip-rule="evenodd" d="M32.0147 31.5147C34.2652 29.2643 37.3174 28 40.5 28H64.5C66.7091 28 68.5 29.7909 68.5 32C68.5 34.2091 66.7091 36 64.5 36H40.5C39.4391 36 38.4217 36.4214 37.6716 37.1716C36.9214 37.9217 36.5 38.9391 36.5 40C36.5 41.0609 36.9214 42.0783 37.6716 42.8284C38.4217 43.5786 39.4391 44 40.5 44H56.5C59.6826 44 62.7348 45.2643 64.9853 47.5147C67.2357 49.7652 68.5 52.8174 68.5 56C68.5 59.1826 67.2357 62.2348 64.9853 64.4853C62.7348 66.7357 59.6826 68 56.5 68H32.5C30.2909 68 28.5 66.2091 28.5 64C28.5 61.7909 30.2909 60 32.5 60H56.5C57.5609 60 58.5783 59.5786 59.3284 58.8284C60.0786 58.0783 60.5 57.0609 60.5 56C60.5 54.9391 60.0786 53.9217 59.3284 53.1716C58.5783 52.4214 57.5609 52 56.5 52H40.5C37.3174 52 34.2652 50.7357 32.0147 48.4853C29.7643 46.2348 28.5 43.1826 28.5 40C28.5 36.8174 29.7643 33.7652 32.0147 31.5147Z" fill="#2563EB"/>
<path fill-rule="evenodd" clip-rule="evenodd" d="M48.5 20C50.7091 20 52.5 21.7909 52.5 24V72C52.5 74.2091 50.7091 76 48.5 76C46.2909 76 44.5 74.2091 44.5 72V24C44.5 21.7909 46.2909 20 48.5 20Z" fill="#2563EB"/>
</svg>
