<svg width="1734" height="5938" viewBox="0 0 1734 5938" fill="none" xmlns="http://www.w3.org/2000/svg">
<path d="M1668 3158V4685C1668 4707.09 1650.09 4725 1628 4725H1523" stroke="#BFDBFE" stroke-width="4"/>
<path d="M1700 3158V4709C1700 4735.51 1678.51 4757 1652 4757H1523" stroke="#BFDBFE" stroke-width="4"/>
<path d="M1732 3158V4741C1732 4767.51 1710.51 4789 1684 4789H1523" stroke="#BFDBFE" stroke-width="4"/>
<circle cx="1523" cy="4725" r="7.5" fill="#BFDBFE" stroke="#BFDBFE"/>
<circle cx="1523" cy="4757" r="7.5" fill="#BFDBFE" stroke="#BFDBFE"/>
<circle cx="1523" cy="4789" r="7.5" fill="#BFDBFE" stroke="#BFDBFE"/>
<path d="M99 5274V5858C99 5880.09 116.909 5898 139 5898H243" stroke="#BFDBFE" stroke-width="4"/>
<path d="M67 5274V5882C67 5908.51 88.4903 5930 115 5930H243" stroke="#BFDBFE" stroke-width="4"/>
<circle cx="8" cy="8" r="7.5" transform="matrix(-1 0 0 1 251 5890)" fill="#BFDBFE" stroke="#BFDBFE"/>
<circle cx="8" cy="8" r="7.5" transform="matrix(-1 0 0 1 251 5922)" fill="#BFDBFE" stroke="#BFDBFE"/>
<path d="M98 0V2006C98 2019.25 108.745 2030 122 2030H243" stroke="url(#paint0_linear_2009_1787)" stroke-width="4"/>
<path d="M66 0V2030C66 2047.67 80.3269 2062 98 2062H244" stroke="url(#paint1_linear_2009_1787)" stroke-width="4"/>
<path d="M34 0V2054C34 2076.09 51.9086 2094 74 2094H243" stroke="url(#paint2_linear_2009_1787)" stroke-width="4"/>
<path d="M2 0V2078C2 2104.51 23.4903 2126 50 2126H243" stroke="url(#paint3_linear_2009_1787)" stroke-width="4"/>
<circle cx="244" cy="2030" r="8" fill="#BFDBFE"/>
<circle cx="244" cy="2062" r="8" fill="#BFDBFE"/>
<circle cx="244" cy="2094" r="8" fill="#BFDBFE"/>
<circle cx="244" cy="2126" r="8" fill="#BFDBFE"/>
<defs>
<linearGradient id="paint0_linear_2009_1787" x1="170.5" y1="0" x2="170.5" y2="2030" gradientUnits="userSpaceOnUse">
<stop stop-color="#3B82F6"/>
<stop offset="0.765" stop-color="#BFDBFE"/>
</linearGradient>
<linearGradient id="paint1_linear_2009_1787" x1="155" y1="0" x2="155" y2="2062" gradientUnits="userSpaceOnUse">
<stop stop-color="#3B82F6"/>
<stop offset="0.765" stop-color="#BFDBFE"/>
</linearGradient>
<linearGradient id="paint2_linear_2009_1787" x1="138.5" y1="0" x2="138.5" y2="2094" gradientUnits="userSpaceOnUse">
<stop stop-color="#3B82F6"/>
<stop offset="0.765" stop-color="#BFDBFE"/>
</linearGradient>
<linearGradient id="paint3_linear_2009_1787" x1="122.5" y1="0" x2="122.5" y2="2126" gradientUnits="userSpaceOnUse">
<stop stop-color="#3B82F6"/>
<stop offset="0.765" stop-color="#BFDBFE"/>
</linearGradient>
</defs>
</svg>
