<svg width="276" height="276" viewBox="0 0 276 276" fill="none" xmlns="http://www.w3.org/2000/svg">
<rect x="0.5" y="212.5" width="63" height="63" rx="7.5" stroke="#93C5FD"/>
<rect x="32" y="32" width="212" height="212" rx="8" fill="#F0F9FF"/>
<path fill-rule="evenodd" clip-rule="evenodd" d="M146.781 146.781C147.823 145.74 149.511 145.74 150.552 146.781C151.325 147.554 151.938 148.472 152.357 149.481C152.775 150.491 152.99 151.574 152.99 152.667C152.99 153.76 152.775 154.842 152.357 155.852C151.938 156.862 151.325 157.779 150.552 158.552C149.779 159.325 148.862 159.938 147.852 160.357C146.842 160.775 145.76 160.99 144.667 160.99C143.574 160.99 142.491 160.775 141.481 160.357C140.472 159.938 139.554 159.325 138.781 158.552L133.448 153.219C132.406 152.178 132.406 150.489 133.448 149.448C134.489 148.406 136.178 148.406 137.219 149.448L142.552 154.781C142.83 155.059 143.16 155.279 143.522 155.429C143.885 155.58 144.274 155.657 144.667 155.657C145.059 155.657 145.448 155.58 145.811 155.429C146.174 155.279 146.503 155.059 146.781 154.781C147.059 154.503 147.279 154.174 147.429 153.811C147.58 153.448 147.657 153.059 147.657 152.667C147.657 152.274 147.58 151.885 147.429 151.522C147.279 151.16 147.059 150.83 146.781 150.552C145.74 149.511 145.74 147.822 146.781 146.781Z" fill="#2563EB"/>
<path fill-rule="evenodd" clip-rule="evenodd" d="M150.952 118.475C148.512 117.017 145.656 116.414 142.835 116.761C140.014 117.109 137.39 118.387 135.377 120.394C135.377 120.394 135.378 120.394 135.377 120.394L127.886 127.886C127.325 128.446 127.01 129.207 127.01 130C127.01 130.793 127.325 131.554 127.886 132.114C128.446 132.675 129.207 132.99 130 132.99C130.793 132.99 131.554 132.675 132.114 132.114L134.461 129.768C136.461 127.77 139.173 126.647 142 126.647C144.827 126.647 147.538 127.769 149.538 129.767L159.886 140.114C161.447 141.675 162.324 143.793 162.324 146C162.324 148.208 161.447 150.325 159.886 151.886C158.325 153.447 156.208 154.324 154 154.324C151.792 154.324 149.675 153.447 148.114 151.886L141.448 145.219C140.406 144.178 140.406 142.489 141.448 141.448C142.489 140.406 144.178 140.406 145.219 141.448L151.886 148.114C152.446 148.675 153.207 148.99 154 148.99C154.793 148.99 155.554 148.675 156.114 148.114C156.675 147.554 156.99 146.793 156.99 146C156.99 145.207 156.675 144.446 156.114 143.886L145.769 133.54C144.769 132.541 143.413 131.98 142 131.98C140.587 131.98 139.231 132.541 138.231 133.54L135.886 135.886C134.325 137.447 132.208 138.324 130 138.324C127.792 138.324 125.675 137.447 124.114 135.886C122.553 134.325 121.677 132.208 121.677 130C121.677 127.793 122.553 125.675 124.114 124.114L131.61 116.619C134.463 113.773 138.183 111.961 142.182 111.468C146.181 110.975 150.229 111.83 153.687 113.897C153.686 113.897 153.687 113.897 153.687 113.897L154.951 114.65C155.518 114.992 156.191 115.111 156.84 114.985C156.842 114.984 156.843 114.984 156.845 114.984L161.474 114.052C162.918 113.762 164.324 114.697 164.614 116.141C164.905 117.585 163.97 118.991 162.526 119.281L157.886 120.214L157.875 120.216C155.926 120.6 153.904 120.245 152.203 119.221L150.952 118.475Z" fill="#2563EB"/>
<path fill-rule="evenodd" clip-rule="evenodd" d="M161.759 111.344C163.225 111.211 164.522 112.292 164.656 113.759L167.322 143.092C167.39 143.838 167.141 144.578 166.636 145.132C166.131 145.685 165.416 146 164.667 146H159.333C157.861 146 156.667 144.806 156.667 143.333C156.667 141.861 157.861 140.667 159.333 140.667H161.747L159.344 114.241C159.211 112.775 160.292 111.478 161.759 111.344Z" fill="#2563EB"/>
<path fill-rule="evenodd" clip-rule="evenodd" d="M114.242 111.344C115.708 111.478 116.789 112.775 116.656 114.241L114.102 142.331L130.552 158.781C131.113 159.342 131.874 159.657 132.667 159.657C133.46 159.657 134.22 159.342 134.781 158.781C135.342 158.22 135.657 157.46 135.657 156.667C135.657 155.874 135.342 155.113 134.781 154.552C133.74 153.511 133.74 151.822 134.781 150.781C135.823 149.74 137.511 149.74 138.552 150.781C140.113 152.342 140.99 154.459 140.99 156.667C140.99 158.874 140.113 160.991 138.552 162.552C136.991 164.113 134.874 164.99 132.667 164.99C130.459 164.99 128.342 164.113 126.781 162.552L109.448 145.219C108.888 144.659 108.606 143.88 108.678 143.092L111.344 113.759C111.478 112.292 112.775 111.211 114.242 111.344Z" fill="#2563EB"/>
<path fill-rule="evenodd" clip-rule="evenodd" d="M111.333 116.667C111.333 115.194 112.527 114 114 114H135.333C136.806 114 138 115.194 138 116.667C138 118.139 136.806 119.333 135.333 119.333H114C112.527 119.333 111.333 118.139 111.333 116.667Z" fill="#2563EB"/>
<path d="M24 72V34C24 28.4772 28.4772 24 34 24H72" stroke="#93C5FD" stroke-width="4"/>
<path d="M252 204V240C252 246.627 246.627 252 240 252H204" stroke="#3B82F6" stroke-width="4"/>
</svg>
