<svg width="120" height="120" viewBox="0 0 120 120" fill="none" xmlns="http://www.w3.org/2000/svg">
<g id="helpdesk">
<path id="Vector (Stroke)" fill-rule="evenodd" clip-rule="evenodd" d="M60 15C54.7471 15 49.5457 16.0346 44.6927 18.0448C39.8396 20.055 35.4301 23.0014 31.7157 26.7157C28.0014 30.4301 25.055 34.8396 23.0448 39.6927C21.6757 42.9981 20.7591 46.4651 20.3137 50H30C33.9783 50 37.7936 51.5804 40.6066 54.3934C43.4196 57.2064 45 61.0218 45 65V80C45 83.9782 43.4196 87.7936 40.6066 90.6066C37.7936 93.4196 33.9783 95 30 95H25C21.0218 95 17.2064 93.4196 14.3934 90.6066C11.5804 87.7936 10 83.9782 10 80V55C10 48.4339 11.2933 41.9321 13.806 35.8658C16.3188 29.7995 20.0017 24.2876 24.6447 19.6447C29.2876 15.0017 34.7995 11.3188 40.8658 8.80602C46.9321 6.29329 53.4339 5 60 5C66.5661 5 73.0679 6.29329 79.1342 8.80602C85.2005 11.3188 90.7124 15.0017 95.3553 19.6447C99.9983 24.2876 103.681 29.7995 106.194 35.8658C108.707 41.9321 110 48.4339 110 55V80C110 83.9783 108.42 87.7936 105.607 90.6066C102.794 93.4196 98.9783 95 95 95H90C86.0217 95 82.2064 93.4196 79.3934 90.6066C76.5804 87.7936 75 83.9783 75 80V65C75 61.0217 76.5804 57.2064 79.3934 54.3934C82.2064 51.5804 86.0217 50 90 50H99.6863C99.2409 46.4651 98.3243 42.9981 96.9552 39.6927C94.945 34.8396 91.9986 30.4301 88.2843 26.7157C84.5699 23.0014 80.1604 20.055 75.3073 18.0448C70.4543 16.0346 65.2529 15 60 15ZM100 60H90C88.6739 60 87.4022 60.5268 86.4645 61.4645C85.5268 62.4022 85 63.6739 85 65V80C85 81.3261 85.5268 82.5978 86.4645 83.5355C87.4022 84.4732 88.6739 85 90 85H95C96.3261 85 97.5978 84.4732 98.5355 83.5355C99.4732 82.5978 100 81.3261 100 80V60ZM20 60V80C20 81.3261 20.5268 82.5979 21.4645 83.5355C22.4021 84.4732 23.6739 85 25 85H30C31.3261 85 32.5978 84.4732 33.5355 83.5355C34.4732 82.5979 35 81.3261 35 80V65C35 63.6739 34.4732 62.4021 33.5355 61.4645C32.5978 60.5268 31.3261 60 30 60H20Z" fill="#3B82F6"/>
<path id="Vector (Stroke)_2" fill-rule="evenodd" clip-rule="evenodd" d="M105 75C107.761 75 110 77.2386 110 80V90C110 96.6304 107.366 102.989 102.678 107.678C97.9893 112.366 91.6304 115 85 115H60C57.2386 115 55 112.761 55 110C55 107.239 57.2386 105 60 105H85C88.9782 105 92.7935 103.42 95.6066 100.607C98.4196 97.7935 100 93.9782 100 90V80C100 77.2386 102.239 75 105 75Z" fill="#3B82F6"/>
</g>
</svg>
