<svg width="119" height="24" viewBox="0 0 119 24" fill="none" xmlns="http://www.w3.org/2000/svg">
<path fill-rule="evenodd" clip-rule="evenodd" d="M0.670898 0H24.6709V24H0.670898V0ZM4.34743 5.64024L7.33029 18.3603H10.3131L12.6788 10.4831L15.0274 18.3603H18.0103L20.9931 5.64024H17.9245L16.1245 13.9545L14.016 5.64024H11.3417L9.216 13.9545L7.416 5.64024H4.34743Z" fill="white"/>
<path fill-rule="evenodd" clip-rule="evenodd" d="M28.6709 0L31.2443 10.5623H33.8177L35.8586 3.64413L37.8848 10.5623H40.4582L43.0316 0H40.3842L38.8313 6.90392L37.0122 0H34.705L32.8711 6.90392L31.3182 0H28.6709ZM50.4887 0.782919C49.9069 0.621593 49.1921 0.540926 48.3442 0.540926C47.5061 0.540926 46.7913 0.621593 46.1997 0.782919C45.6179 0.944245 45.1446 1.21946 44.7799 1.60854C44.4151 1.98817 44.1537 2.50534 43.996 3.16014C43.8383 3.81495 43.7594 4.64529 43.7594 5.65125C43.7594 6.64769 43.8383 7.47803 43.996 8.14235C44.1537 8.79716 44.4151 9.31913 44.7799 9.70819C45.1446 10.0878 45.6179 10.3583 46.1997 10.5196C46.7913 10.6809 47.5061 10.7616 48.3442 10.7616C49.1921 10.7616 49.9069 10.6809 50.4887 10.5196C51.0704 10.3583 51.5436 10.0878 51.9085 9.70819C52.2732 9.31913 52.5345 8.79716 52.6923 8.14235C52.85 7.47803 52.929 6.64769 52.929 5.65125C52.929 4.64529 52.85 3.81495 52.6923 3.16014C52.5345 2.50534 52.2732 1.98817 51.9085 1.60854C51.5436 1.21946 51.0704 0.944245 50.4887 0.782919ZM47.3237 2.83274C47.5701 2.66192 47.9103 2.57651 48.3442 2.57651C48.778 2.57651 49.1132 2.66192 49.3499 2.83274C49.5963 3.00356 49.764 3.31201 49.8527 3.75801C49.9513 4.20401 50.0006 4.83514 50.0006 5.65125C50.0006 6.46735 49.9513 7.09849 49.8527 7.54449C49.764 7.99048 49.5963 8.29894 49.3499 8.46976C49.1132 8.64057 48.778 8.72598 48.3442 8.72598C47.9103 8.72598 47.5701 8.64057 47.3237 8.46976C47.0871 8.29894 46.9194 7.99048 46.8209 7.54449C46.7222 7.09849 46.673 6.46735 46.673 5.65125C46.673 4.83514 46.7222 4.20401 46.8209 3.75801C46.9194 3.31201 47.0871 3.00356 47.3237 2.83274ZM60.8746 0.868328C60.2731 0.688017 59.4941 0.597865 58.5378 0.597865C57.8969 0.597865 57.3448 0.602607 56.8814 0.6121C56.4278 0.6121 56.0088 0.621593 55.6243 0.64057C55.2397 0.659546 54.8305 0.692767 54.3967 0.740214V10.5623H57.118V6.84838C57.4889 6.85042 57.9178 6.85468 58.4047 6.86121C58.6906 6.86121 58.9076 6.91344 59.0555 7.0178C59.2033 7.11273 59.3118 7.31201 59.3808 7.61566L60.1055 10.5623H63.0191L62.1761 7.53025C62.0971 7.16014 61.964 6.87073 61.7767 6.66192C61.5993 6.44369 61.402 6.2871 61.1851 6.19217C60.9781 6.09725 60.7808 6.04031 60.5936 6.02136V5.93595C61.1062 5.87901 61.5105 5.74618 61.8063 5.53737C62.1021 5.31913 62.3092 5.03915 62.4275 4.69751C62.5556 4.35587 62.6197 3.97625 62.6197 3.55872C62.6197 2.79004 62.4767 2.19689 62.1908 1.77936C61.9147 1.35231 61.4759 1.04864 60.8746 0.868328ZM57.118 4.92527H58.4787C58.8336 4.92527 59.1047 4.89208 59.2921 4.82562C59.4892 4.75917 59.6272 4.64057 59.7062 4.46975C59.785 4.28942 59.8245 4.04271 59.8245 3.72954C59.8245 3.40685 59.785 3.16014 59.7062 2.98933C59.6272 2.81851 59.4892 2.69991 59.2921 2.63345C59.1047 2.56699 58.8336 2.53381 58.4787 2.53381C57.9877 2.53381 57.5341 2.535 57.118 2.5374V4.92527ZM70.4151 4.64057L72.8997 0.740214H69.927L67.5932 4.5694H66.8514C66.8618 4.51763 66.8715 4.46544 66.8803 4.41281C66.9494 4.05223 66.9839 3.70107 66.9839 3.35943V0.740214H64.2182V10.5623H66.9839V7.27402C66.9839 6.99885 66.9445 6.69511 66.8655 6.36299C66.8645 6.35824 66.8633 6.3535 66.8623 6.34876H67.5972L69.9861 10.5623H73.0624L70.5186 6.4057C70.4101 6.20641 70.2622 6.02607 70.0749 5.86477C69.8876 5.69395 69.7249 5.57055 69.5868 5.49466V5.45196C69.7249 5.37607 69.8678 5.27162 70.0157 5.13879C70.1636 4.99644 70.2967 4.83034 70.4151 4.64057ZM33.6779 23.7943V13.6577H30.9317V23.7943H33.6779ZM44.4795 22.8247V13.6577H41.9253L41.94 18.5203C41.94 18.8141 41.9502 19.1079 41.9696 19.4017C41.9889 19.6956 42.0139 19.9942 42.0434 20.2979H41.9105C41.7924 19.9845 41.6697 19.6857 41.5415 19.4017C41.4136 19.1178 41.2807 18.8582 41.1428 18.6231L38.7511 14.4656C38.5936 14.2012 38.446 14.0004 38.3081 13.8633C38.1704 13.7262 37.9538 13.6577 37.6585 13.6577H36.4331C35.7834 13.6577 35.4586 13.9809 35.4586 14.6272V23.7943H38.0424V18.7553C38.0424 18.4811 38.0276 18.1971 37.9981 17.9033C37.9784 17.5996 37.9489 17.3058 37.9095 17.0218H38.0424C38.1212 17.3058 38.2195 17.5899 38.3376 17.8739C38.4558 18.1579 38.5739 18.4223 38.692 18.6672L41.1871 22.9863C41.3348 23.2507 41.4775 23.4515 41.6153 23.5886C41.7629 23.7257 41.9843 23.7943 42.2796 23.7943H43.5198C44.1593 23.7943 44.4795 23.4711 44.4795 22.8247ZM55.2786 22.8247V13.6577H52.7244L52.7391 18.5203C52.7391 18.8141 52.7493 19.1079 52.7687 19.4017C52.7889 19.6956 52.8129 19.9942 52.8425 20.2979H52.7096C52.5915 19.9845 52.4688 19.6857 52.3405 19.4017C52.2132 19.1178 52.0803 18.8582 51.9419 18.6231L49.5501 14.4656C49.3932 14.2012 49.2456 14.0004 49.1071 13.8633C48.9696 13.7262 48.7528 13.6577 48.4575 13.6577H47.2321C46.5824 13.6577 46.2576 13.9809 46.2576 14.6272V23.7943H48.8414V18.7553C48.8414 18.4811 48.8266 18.1971 48.7971 17.9033C48.7777 17.5996 48.7482 17.3058 48.7085 17.0218H48.8414C48.9207 17.3058 49.0186 17.5899 49.1367 17.8739C49.2548 18.1579 49.3729 18.4223 49.491 18.6672L51.9862 22.9863C52.1338 23.2507 52.2768 23.4515 52.4143 23.5886C52.562 23.7257 52.7834 23.7943 53.0787 23.7943H54.3189C54.9593 23.7943 55.2786 23.4711 55.2786 22.8247ZM63.4644 13.7017C62.884 13.5352 62.1707 13.452 61.3236 13.452C60.4876 13.452 59.7734 13.5352 59.1828 13.7017C58.6024 13.8682 58.1299 14.1522 57.7654 14.5538C57.4019 14.9456 57.1407 15.4793 56.9829 16.1551C56.826 16.8309 56.7467 17.6878 56.7467 18.726C56.7467 19.7543 56.826 20.6112 56.9829 21.2969C57.1407 21.9726 57.4019 22.5113 57.7654 22.9128C58.1299 23.3046 58.6024 23.5837 59.1828 23.7502C59.7734 23.9167 60.4876 23.9999 61.3236 23.9999C62.1707 23.9999 62.884 23.9167 63.4644 23.7502C64.0457 23.5837 64.5182 23.3046 64.8818 22.9128C65.2463 22.5113 65.5074 21.9726 65.6643 21.2969C65.8221 20.6112 65.9005 19.7543 65.9005 18.726C65.9005 17.6878 65.8221 16.8309 65.6643 16.1551C65.5074 15.4793 65.2463 14.9456 64.8818 14.5538C64.5182 14.1522 64.0457 13.8682 63.4644 13.7017ZM60.3049 15.8172C60.5512 15.6409 60.8908 15.5528 61.3236 15.5528C61.7573 15.5528 62.0913 15.6409 62.3276 15.8172C62.5739 15.9935 62.741 16.3118 62.8295 16.7721C62.9283 17.2324 62.9772 17.8837 62.9772 18.726C62.9772 19.5682 62.9283 20.2196 62.8295 20.6798C62.741 21.1401 62.5739 21.4584 62.3276 21.6347C62.0913 21.811 61.7573 21.8992 61.3236 21.8992C60.8908 21.8992 60.5512 21.811 60.3049 21.6347C60.0686 21.4584 59.9016 21.1401 59.8029 20.6798C59.7051 20.2196 59.6552 19.5682 59.6552 18.726C59.6552 17.8837 59.7051 17.2324 59.8029 16.7721C59.9016 16.3118 60.0686 15.9935 60.3049 15.8172ZM73.3933 23.045L76.0066 13.6577H73.1571L71.5921 20.577C71.5524 20.7631 71.5127 20.9541 71.474 21.1499C71.4343 21.3458 71.4002 21.5368 71.3706 21.7229H71.0163C70.9868 21.5368 70.9517 21.3458 70.913 21.1499C70.8733 20.9541 70.8336 20.7631 70.7948 20.577L69.2298 13.6577H66.3803L69.0084 23.045C69.0573 23.2703 69.1652 23.4515 69.3332 23.5886C69.5103 23.7257 69.7217 23.7943 69.968 23.7943H72.4337C72.6699 23.7943 72.8711 23.7257 73.039 23.5886C73.2162 23.4515 73.3343 23.2703 73.3933 23.045ZM82.298 13.8486C82.131 13.7213 81.9335 13.6577 81.7074 13.6577H79.1532C78.9272 13.6577 78.7251 13.7213 78.5479 13.8486C78.3809 13.976 78.2674 14.1522 78.2083 14.3775L75.4179 23.7943H78.2526L78.8681 21.385H81.9926L82.6081 23.7943H85.4428L82.6524 14.3775C82.5933 14.1522 82.4752 13.976 82.298 13.8486ZM81.4859 19.4017L80.8216 16.8015C80.7819 16.635 80.7478 16.4587 80.7182 16.2726C80.6887 16.0768 80.6592 15.8955 80.6297 15.7291H80.231C80.2116 15.8955 80.1821 16.0768 80.1424 16.2726C80.1129 16.4587 80.0788 16.635 80.0391 16.8015L79.3748 19.4017H81.4859ZM90.4377 23.7943V15.7584H93.3758V13.6577H90.4377H87.662H84.7092V15.7584H87.662V23.7943H90.4377ZM94.473 23.7943H97.2191V13.6577H94.473V23.7943ZM105.408 13.7017C104.826 13.5352 104.113 13.452 103.267 13.452C102.43 13.452 101.717 13.5352 101.126 13.7017C100.545 13.8682 100.072 14.1522 99.7087 14.5538C99.3442 14.9456 99.0831 15.4793 98.9262 16.1551C98.7684 16.8309 98.69 17.6878 98.69 18.726C98.69 19.7543 98.7684 20.6112 98.9262 21.2969C99.0831 21.9726 99.3442 22.5113 99.7087 22.9128C100.072 23.3046 100.545 23.5837 101.126 23.7502C101.717 23.9167 102.43 23.9999 103.267 23.9999C104.113 23.9999 104.826 23.9167 105.408 23.7502C105.988 23.5837 106.461 23.3046 106.825 22.9128C107.189 22.5113 107.45 21.9726 107.608 21.2969C107.764 20.6112 107.844 19.7543 107.844 18.726C107.844 17.6878 107.764 16.8309 107.608 16.1551C107.45 15.4793 107.189 14.9456 106.825 14.5538C106.461 14.1522 105.988 13.8682 105.408 13.7017ZM102.248 15.8172C102.494 15.6409 102.833 15.5528 103.267 15.5528C103.7 15.5528 104.035 15.6409 104.271 15.8172C104.516 15.9935 104.684 16.3118 104.773 16.7721C104.871 17.2324 104.92 17.8837 104.92 18.726C104.92 19.5682 104.871 20.2196 104.773 20.6798C104.684 21.1401 104.516 21.4584 104.271 21.6347C104.035 21.811 103.7 21.8992 103.267 21.8992C102.833 21.8992 102.494 21.811 102.248 21.6347C102.012 21.4584 101.844 21.1401 101.746 20.6798C101.647 20.2196 101.599 19.5682 101.599 18.726C101.599 17.8837 101.647 17.2324 101.746 16.7721C101.844 16.3118 102.012 15.9935 102.248 15.8172ZM118.329 22.8247V13.6577H115.775L115.79 18.5203C115.79 18.8141 115.8 19.1079 115.819 19.4017C115.84 19.6956 115.864 19.9942 115.893 20.2979H115.76C115.642 19.9845 115.519 19.6857 115.391 19.4017C115.264 19.1178 115.131 18.8582 114.992 18.6231L112.601 14.4656C112.444 14.2012 112.296 14.0004 112.158 13.8633C112.02 13.7262 111.803 13.6577 111.508 13.6577H110.283C109.633 13.6577 109.308 13.9809 109.308 14.6272V23.7943H111.892V18.7553C111.892 18.4811 111.877 18.1971 111.848 17.9033C111.828 17.5996 111.799 17.3058 111.759 17.0218H111.892C111.971 17.3058 112.069 17.5899 112.187 17.8739C112.305 18.1579 112.423 18.4223 112.542 18.6672L115.037 22.9863C115.184 23.2507 115.327 23.4515 115.465 23.5886C115.613 23.7257 115.834 23.7943 116.129 23.7943H117.369C118.01 23.7943 118.329 23.4711 118.329 22.8247Z" fill="white"/>
</svg>
