<svg width="96" height="96" viewBox="0 0 96 96" fill="none" xmlns="http://www.w3.org/2000/svg">
<path fill-rule="evenodd" clip-rule="evenodd" d="M28 12C28 7.58172 31.5817 4 36 4H60C64.4183 4 68 7.58172 68 12V20C68 24.4183 64.4183 28 60 28H36C31.5817 28 28 24.4183 28 20V12ZM60 12H36V20H60V12Z" fill="#2563EB"/>
<path fill-rule="evenodd" clip-rule="evenodd" d="M24 20C22.9391 20 21.9217 20.4214 21.1716 21.1716C20.4214 21.9217 20 22.9391 20 24V80C20 81.0609 20.4214 82.0783 21.1716 82.8284C21.9217 83.5786 22.9391 84 24 84H72C73.0609 84 74.0783 83.5786 74.8284 82.8284C75.5786 82.0783 76 81.0609 76 80V24C76 22.9391 75.5786 21.9217 74.8284 21.1716C74.0783 20.4214 73.0609 20 72 20H64C61.7909 20 60 18.2091 60 16C60 13.7909 61.7909 12 64 12H72C75.1826 12 78.2348 13.2643 80.4853 15.5147C82.7357 17.7652 84 20.8174 84 24V80C84 83.1826 82.7357 86.2348 80.4853 88.4853C78.2348 90.7357 75.1826 92 72 92H24C20.8174 92 17.7652 90.7357 15.5147 88.4853C13.2643 86.2348 12 83.1826 12 80V24C12 20.8174 13.2643 17.7652 15.5147 15.5147C17.7652 13.2643 20.8174 12 24 12H32C34.2091 12 36 13.7909 36 16C36 18.2091 34.2091 20 32 20H24Z" fill="#2563EB"/>
<path fill-rule="evenodd" clip-rule="evenodd" d="M44 44C44 41.7909 45.7909 40 48 40H64C66.2091 40 68 41.7909 68 44C68 46.2091 66.2091 48 64 48H48C45.7909 48 44 46.2091 44 44Z" fill="#2563EB"/>
<path fill-rule="evenodd" clip-rule="evenodd" d="M44 64C44 61.7909 45.7909 60 48 60H64C66.2091 60 68 61.7909 68 64C68 66.2091 66.2091 68 64 68H48C45.7909 68 44 66.2091 44 64Z" fill="#2563EB"/>
<path fill-rule="evenodd" clip-rule="evenodd" d="M28 44C28 41.7909 29.7909 40 32 40H32.04C34.2491 40 36.04 41.7909 36.04 44C36.04 46.2091 34.2491 48 32.04 48H32C29.7909 48 28 46.2091 28 44Z" fill="#2563EB"/>
<path fill-rule="evenodd" clip-rule="evenodd" d="M28 64C28 61.7909 29.7909 60 32 60H32.04C34.2491 60 36.04 61.7909 36.04 64C36.04 66.2091 34.2491 68 32.04 68H32C29.7909 68 28 66.2091 28 64Z" fill="#2563EB"/>
</svg>
