<svg width="64" height="64" viewBox="0 0 64 64" fill="none" xmlns="http://www.w3.org/2000/svg">
<g id="paint-brush">
<path id="Vector (Stroke)" fill-rule="evenodd" clip-rule="evenodd" d="M26.6667 2.66663C28.1394 2.66663 29.3333 3.86053 29.3333 5.33329V10.6666C29.3333 12.1394 28.1394 13.3333 26.6667 13.3333C25.1939 13.3333 24 12.1394 24 10.6666V5.33329C24 3.86053 25.1939 2.66663 26.6667 2.66663Z" fill="#2563EB"/>
<path id="Vector (Stroke)_2" fill-rule="evenodd" clip-rule="evenodd" d="M37.3332 2.66663C38.8059 2.66663 39.9998 3.86053 39.9998 5.33329V16C39.9998 17.4727 38.8059 18.6666 37.3332 18.6666C35.8604 18.6666 34.6665 17.4727 34.6665 16V5.33329C34.6665 3.86053 35.8604 2.66663 37.3332 2.66663Z" fill="#2563EB"/>
<path id="Vector (Stroke)_3" fill-rule="evenodd" clip-rule="evenodd" d="M14.8956 4.22872C15.8958 3.22853 17.2523 2.66663 18.6668 2.66663H45.3335C46.748 2.66663 48.1045 3.22853 49.1047 4.22872C50.1049 5.22892 50.6668 6.58548 50.6668 7.99996V32C50.6668 33.4727 49.4729 34.6666 48.0002 34.6666H16.0002C14.5274 34.6666 13.3335 33.4727 13.3335 32V7.99996C13.3335 6.58547 13.8954 5.22892 14.8956 4.22872ZM45.3335 7.99996H18.6668L18.6668 29.3333H45.3335V7.99996Z" fill="#2563EB"/>
<path id="Vector (Stroke)_4" fill-rule="evenodd" clip-rule="evenodd" d="M12.2286 30.8953C13.2288 29.8952 14.5853 29.3333 15.9998 29.3333C17.4726 29.3333 18.6665 30.5272 18.6665 31.9999C18.6665 33.4727 17.4726 34.6666 15.9998 34.6666L15.9998 37.3333C15.9998 38.0405 16.2808 38.7188 16.7809 39.2189C17.281 39.719 17.9593 39.9999 18.6665 39.9999H23.9998C25.4143 39.9999 26.7709 40.5618 27.7711 41.562C28.7713 42.5622 29.3332 43.9188 29.3332 45.3333V53.0666C29.3332 53.7738 29.6141 54.4521 30.1142 54.9522C30.6143 55.4523 31.2926 55.7332 31.9998 55.7332C32.7071 55.7332 33.3854 55.4523 33.8855 54.9522C34.3856 54.4521 34.6665 53.7738 34.6665 53.0666V45.3333C34.6665 43.9188 35.2284 42.5622 36.2286 41.562C37.2288 40.5618 38.5854 39.9999 39.9998 39.9999H45.3332C46.0404 39.9999 46.7187 39.719 47.2188 39.2189C47.7189 38.7188 47.9998 38.0405 47.9998 37.3333V34.6666C46.5271 34.6666 45.3332 33.4727 45.3332 31.9999C45.3332 30.5272 46.5271 29.3333 47.9998 29.3333C49.4143 29.3333 50.7709 29.8952 51.7711 30.8953C52.7713 31.8955 53.3332 33.2521 53.3332 34.6666V37.3333C53.3332 39.455 52.4903 41.4898 50.99 42.9901C49.4897 44.4904 47.4549 45.3333 45.3332 45.3333L39.9998 45.3332V53.0666C39.9998 55.1883 39.157 57.2231 37.6567 58.7234C36.1564 60.2237 34.1216 61.0666 31.9998 61.0666C29.8781 61.0666 27.8433 60.2237 26.343 58.7234C24.8427 57.2231 23.9998 55.1883 23.9998 53.0666V45.3333H18.6665C16.5448 45.3333 14.5099 44.4904 13.0096 42.9901C11.5094 41.4898 10.6665 39.455 10.6665 37.3333V34.6666C10.6665 33.2521 11.2284 31.8955 12.2286 30.8953Z" fill="#2563EB"/>
</g>
</svg>
