<svg width="276" height="276" viewBox="0 0 276 276" fill="none" xmlns="http://www.w3.org/2000/svg">
<rect x="0.5" y="212.5" width="63" height="63" rx="7.5" stroke="#93C5FD"/>
<rect x="32" y="32" width="212" height="212" rx="8" fill="#F0F9FF"/>
<path fill-rule="evenodd" clip-rule="evenodd" d="M132.667 108.667C134.139 108.667 135.333 109.861 135.333 111.333V116.667C135.333 118.139 134.139 119.333 132.667 119.333C131.194 119.333 130 118.139 130 116.667V111.333C130 109.861 131.194 108.667 132.667 108.667Z" fill="#2563EB"/>
<path fill-rule="evenodd" clip-rule="evenodd" d="M143.333 108.667C144.806 108.667 146 109.861 146 111.333V122C146 123.473 144.806 124.667 143.333 124.667C141.86 124.667 140.667 123.473 140.667 122V111.333C140.667 109.861 141.86 108.667 143.333 108.667Z" fill="#2563EB"/>
<path fill-rule="evenodd" clip-rule="evenodd" d="M120.896 110.229C121.896 109.229 123.252 108.667 124.667 108.667H151.333C152.748 108.667 154.105 109.229 155.105 110.229C156.105 111.229 156.667 112.585 156.667 114V138C156.667 139.473 155.473 140.667 154 140.667H122C120.527 140.667 119.333 139.473 119.333 138V114C119.333 112.585 119.895 111.229 120.896 110.229ZM151.333 114H124.667L124.667 135.333H151.333V114Z" fill="#2563EB"/>
<path fill-rule="evenodd" clip-rule="evenodd" d="M118.229 136.895C119.229 135.895 120.585 135.333 122 135.333C123.473 135.333 124.667 136.527 124.667 138C124.667 139.473 123.473 140.667 122 140.667L122 143.333C122 144.04 122.281 144.719 122.781 145.219C123.281 145.719 123.959 146 124.667 146H130C131.414 146 132.771 146.562 133.771 147.562C134.771 148.562 135.333 149.919 135.333 151.333V159.067C135.333 159.774 135.614 160.452 136.114 160.952C136.614 161.452 137.293 161.733 138 161.733C138.707 161.733 139.385 161.452 139.885 160.952C140.386 160.452 140.667 159.774 140.667 159.067V151.333C140.667 149.919 141.228 148.562 142.229 147.562C143.229 146.562 144.585 146 146 146H151.333C152.04 146 152.719 145.719 153.219 145.219C153.719 144.719 154 144.04 154 143.333V140.667C152.527 140.667 151.333 139.473 151.333 138C151.333 136.527 152.527 135.333 154 135.333C155.414 135.333 156.771 135.895 157.771 136.895C158.771 137.896 159.333 139.252 159.333 140.667V143.333C159.333 145.455 158.49 147.49 156.99 148.99C155.49 150.49 153.455 151.333 151.333 151.333L146 151.333V159.067C146 161.188 145.157 163.223 143.657 164.723C142.156 166.224 140.122 167.067 138 167.067C135.878 167.067 133.843 166.224 132.343 164.723C130.843 163.223 130 161.188 130 159.067V151.333H124.667C122.545 151.333 120.51 150.49 119.01 148.99C117.509 147.49 116.667 145.455 116.667 143.333V140.667C116.667 139.252 117.228 137.896 118.229 136.895Z" fill="#2563EB"/>
<path d="M24 72V34C24 28.4772 28.4772 24 34 24H72" stroke="#93C5FD" stroke-width="4"/>
<path d="M252 204V240C252 246.627 246.627 252 240 252H204" stroke="#3B82F6" stroke-width="4"/>
</svg>
