<svg width="104" height="24" viewBox="0 0 104 24" fill="none" xmlns="http://www.w3.org/2000/svg">
<g clip-path="url(#clip0_88_322)">
<path d="M23.7701 7.09824C23.7126 5.83654 23.5119 4.97475 23.219 4.22068C22.9216 3.42972 22.4546 2.71328 21.8517 2.1208C21.26 1.51799 20.5428 1.05094 19.7519 0.752855C18.9978 0.459934 18.136 0.259981 16.8743 0.202429C15.6104 0.144878 15.2061 0.130859 11.9869 0.130859C8.76771 0.130859 8.36337 0.144878 7.09946 0.202429C5.83776 0.259981 4.97597 0.460672 4.2219 0.753593C3.43021 1.05168 2.71377 1.51799 2.12202 2.12154C1.51921 2.71328 1.05216 3.42972 0.754076 4.22142C0.461155 4.97549 0.261201 5.83728 0.20365 7.09898C0.145361 8.36363 0.13208 8.76723 0.13208 11.9871C0.13208 15.2071 0.146099 15.6107 0.20365 16.8753C0.261201 18.137 0.461893 18.9988 0.754813 19.7529C1.05216 20.5438 1.51921 21.2603 2.12202 21.8527C2.71377 22.4556 3.43094 22.9226 4.2219 23.22C4.97597 23.5129 5.83776 23.7136 7.09946 23.7711C8.36337 23.8287 8.76771 23.8427 11.9869 23.8427C15.2061 23.8427 15.6104 23.8294 16.8743 23.7711C18.136 23.7136 18.9978 23.5129 19.7519 23.22C21.3441 22.6046 22.6029 21.3451 23.219 19.7529C23.5119 18.9988 23.7126 18.137 23.7701 16.8753C23.8277 15.6107 23.8417 15.2071 23.8417 11.9871C23.8417 8.76723 23.8277 8.36289 23.7701 7.09824ZM21.6363 16.7764C21.5839 17.9326 21.3906 18.5598 21.2283 18.9774C20.8291 20.0111 20.0123 20.8286 18.9786 21.2271C18.561 21.3894 17.9331 21.5827 16.7777 21.6351C15.5278 21.6919 15.1529 21.7044 11.9876 21.7044C8.82157 21.7044 8.44675 21.6926 7.1976 21.6351C6.04214 21.5827 5.41425 21.3894 4.99663 21.2271C4.48162 21.0367 4.01605 20.7342 3.63385 20.3402C3.23984 19.958 2.93733 19.4924 2.74697 18.9774C2.58465 18.5598 2.39133 17.9319 2.33895 16.7764C2.28213 15.5265 2.26959 15.1517 2.26959 11.9864C2.26959 8.82109 2.2814 8.44627 2.33895 7.19637C2.38986 6.03945 2.58243 5.41229 2.74476 4.99467C2.93512 4.47966 3.23837 4.01335 3.63163 3.63115C4.01457 3.23715 4.48015 2.93464 4.99515 2.74427C5.41277 2.58195 6.04067 2.38864 7.19612 2.33625C8.44601 2.27944 8.82083 2.26763 11.9861 2.26763C15.1515 2.26763 15.5263 2.27944 16.7762 2.33699C17.9324 2.38937 18.5595 2.58269 18.9771 2.74501C19.4922 2.93537 19.9577 3.23789 20.3399 3.63189C20.7339 4.01409 21.0364 4.4804 21.2268 4.99541C21.3891 5.41303 21.5824 6.04092 21.6348 7.19637C21.6916 8.44627 21.7042 8.82109 21.7042 11.9864C21.7042 15.1517 21.6931 15.5265 21.6363 16.7764Z" fill="white"/>
<path d="M11.9861 5.89844C8.62375 5.89844 5.89893 8.624 5.89893 11.9856C5.89893 15.3472 8.62449 18.0735 11.9861 18.0735C15.3484 18.0735 18.074 15.3479 18.074 11.9856C18.074 8.62326 15.3484 5.89844 11.9861 5.89844ZM11.9861 15.9374C9.80429 15.9374 8.03496 14.1681 8.03496 11.9856C8.03496 9.80306 9.80429 8.03373 11.9868 8.03373C14.1693 8.03373 15.9387 9.80306 15.9387 11.9856C15.9387 14.1681 14.1686 15.9374 11.9861 15.9374Z" fill="white"/>
<path d="M19.7372 5.6579C19.7372 6.44369 19.1004 7.08045 18.3146 7.08045C17.5288 7.08045 16.8921 6.44369 16.8921 5.6579C16.8921 4.8721 17.5288 4.23535 18.3146 4.23535C19.1004 4.23535 19.7372 4.8721 19.7372 5.6579Z" fill="white"/>
</g>
<g clip-path="url(#clip1_88_322)">
<path d="M51.9865 0.131836C45.4393 0.131836 40.1318 5.43931 40.1318 11.9865C40.1318 18.5337 45.4393 23.8412 51.9865 23.8412C58.5337 23.8412 63.8412 18.5337 63.8412 11.9865C63.8412 5.43931 58.5337 0.131836 51.9865 0.131836ZM55.4036 7.58817H54.1717C53.1989 7.58817 53.0097 8.0505 53.0097 8.72859V10.2241H55.3369L55.0266 12.5729H53.0097V18.5725H50.5864V12.5729H48.5695V10.2241H50.5864V8.49598C50.5864 6.48674 51.8105 5.40085 53.5977 5.40085C54.201 5.39821 54.8037 5.4293 55.4036 5.49384V7.58817Z" fill="white"/>
</g>
<path d="M87.5879 21.6196C96.5348 21.6196 101.428 14.207 101.428 7.7791C101.428 7.56861 101.428 7.35892 101.414 7.15027C102.366 6.46165 103.188 5.60917 103.841 4.63234C102.953 5.02565 102.011 5.28382 101.047 5.39762C102.062 4.78961 102.822 3.8336 103.186 2.70714C102.231 3.27379 101.186 3.67316 100.097 3.88786C98.2545 1.92894 95.1731 1.83437 93.2141 3.67659C91.9507 4.86469 91.4149 6.63499 91.8069 8.32442C87.8961 8.12815 84.252 6.28093 81.782 3.24192C80.4909 5.46454 81.1503 8.30808 83.2881 9.73539C82.5138 9.71247 81.7567 9.50356 81.0802 9.12658C81.0802 9.1466 81.0802 9.16742 81.0802 9.18823C81.0807 11.5038 82.713 13.4981 84.9828 13.9567C84.2668 14.1519 83.5152 14.1806 82.7862 14.0402C83.4235 16.0218 85.2496 17.3793 87.3308 17.4183C85.6082 18.7721 83.4804 19.5068 81.2896 19.5047C80.9027 19.5039 80.5162 19.4805 80.1318 19.4344C82.3563 20.8619 84.9448 21.6191 87.5879 21.6156" fill="white"/>
<defs>
<clipPath id="clip0_88_322">
<rect width="24" height="24" fill="white"/>
</clipPath>
<clipPath id="clip1_88_322">
<rect width="24" height="24" fill="white" transform="translate(40)"/>
</clipPath>
</defs>
</svg>
