<svg width="64" height="64" viewBox="0 0 64 64" fill="none" xmlns="http://www.w3.org/2000/svg">
<g id="time-up">
<path id="Vector (Stroke)" fill-rule="evenodd" clip-rule="evenodd" d="M41.0618 9.77877C36.5179 7.92576 31.5152 7.51016 26.7278 8.58797C21.9404 9.66578 17.5985 12.1852 14.2871 15.8067C10.9757 19.4282 8.85408 23.9778 8.20803 28.8423C7.56198 33.7067 8.42261 38.6524 10.6739 43.0127C12.9253 47.3729 16.4591 50.9383 20.7992 53.2283C25.1393 55.5184 30.077 56.4229 34.9471 55.8202C36.4087 55.6393 37.7402 56.6775 37.9211 58.1391C38.102 59.6007 37.0638 60.9322 35.6022 61.1131C29.6499 61.8498 23.6149 60.7442 18.3103 57.9453C13.0057 55.1464 8.68663 50.7887 5.93501 45.4595C3.18339 40.1302 2.13151 34.0856 2.92112 28.1401C3.71073 22.1946 6.30388 16.6341 10.3511 12.2078C14.3984 7.78149 19.7052 4.7022 25.5564 3.38487C31.4076 2.06755 37.5221 2.57551 43.0757 4.84029C48.6293 7.10508 53.3553 11.0178 56.6166 16.0513C59.878 21.0848 61.5181 26.997 61.3158 32.9913C61.2661 34.4632 60.0326 35.6161 58.5607 35.5665C57.0888 35.5168 55.9358 34.2833 55.9855 32.8114C56.151 27.907 54.8091 23.0697 52.1407 18.9514C49.4723 14.8331 45.6057 11.6318 41.0618 9.77877Z" fill="#2563EB"/>
<path id="Vector (Stroke)_2" fill-rule="evenodd" clip-rule="evenodd" d="M31.9999 13.3334C33.4727 13.3334 34.6666 14.5273 34.6666 16V30.352L37.3578 31.6976C38.6751 32.3562 39.209 33.958 38.5504 35.2753C37.8918 36.5926 36.29 37.1265 34.9727 36.4678L30.8073 34.3852C29.9039 33.9335 29.3333 33.0101 29.3333 32V16C29.3333 14.5273 30.5272 13.3334 31.9999 13.3334Z" fill="#2563EB"/>
<path id="Vector (Stroke)_3" fill-rule="evenodd" clip-rule="evenodd" d="M46.1145 35.4478C47.1559 34.4064 48.8443 34.4064 49.8857 35.4478L60.5524 46.1145C61.5938 47.1559 61.5938 48.8443 60.5524 49.8857C59.511 50.9271 57.8225 50.9271 56.7811 49.8857L48.0001 41.1047L39.219 49.8857C38.1776 50.9271 36.4892 50.9271 35.4478 49.8857C34.4064 48.8443 34.4064 47.1559 35.4478 46.1145L46.1145 35.4478Z" fill="#2563EB"/>
<path id="Vector (Stroke)_4" fill-rule="evenodd" clip-rule="evenodd" d="M47.9999 34.6667C49.4727 34.6667 50.6666 35.8607 50.6666 37.3334V58.6667C50.6666 60.1395 49.4727 61.3334 47.9999 61.3334C46.5272 61.3334 45.3333 60.1395 45.3333 58.6667V37.3334C45.3333 35.8607 46.5272 34.6667 47.9999 34.6667Z" fill="#2563EB"/>
</g>
</svg>
